<svg width="58" height="24" viewBox="0 0 58 24" fill="none" xmlns="http://www.w3.org/2000/svg">
<path d="M5 20C5 20.5304 5.21071 21.0391 5.58579 21.4142C5.96086 21.7893 6.46957 22 7 22H17C17.5304 22 18.0391 21.7893 18.4142 21.4142C18.7893 21.0391 19 20.5304 19 20V8H21V6H17V4C17 3.46957 16.7893 2.96086 16.4142 2.58579C16.0391 2.21071 15.5304 2 15 2H9C8.46957 2 7.96086 2.21071 7.58579 2.58579C7.21071 2.96086 7 3.46957 7 4V6H3V8H5V20ZM9 4H15V6H9V4ZM8 8H17V20H7V8H8Z" fill="#E4F5FF"/>
<path d="M9 10H11V18H9V10ZM13 10H15V18H13V10Z" fill="#E4F5FF"/>
<path d="M26.25 8.98C26.99 8.98 27.6367 9.12667 28.19 9.42C28.7433 9.71333 29.17 10.1267 29.47 10.66C29.7767 11.1867 29.93 11.7967 29.93 12.49C29.93 13.1767 29.7767 13.7867 29.47 14.32C29.17 14.8533 28.74 15.2667 28.18 15.56C27.6267 15.8533 26.9833 16 26.25 16H23.62V8.98H26.25ZM26.14 14.52C26.7867 14.52 27.29 14.3433 27.65 13.99C28.01 13.6367 28.19 13.1367 28.19 12.49C28.19 11.8433 28.01 11.34 27.65 10.98C27.29 10.62 26.7867 10.44 26.14 10.44H25.33V14.52H26.14ZM36.1956 13.12C36.1956 13.28 36.1856 13.4467 36.1656 13.62H32.2956C32.3223 13.9667 32.4323 14.2333 32.6256 14.42C32.8256 14.6 33.069 14.69 33.3556 14.69C33.7823 14.69 34.079 14.51 34.2456 14.15H36.0656C35.9723 14.5167 35.8023 14.8467 35.5556 15.14C35.3156 15.4333 35.0123 15.6633 34.6456 15.83C34.279 15.9967 33.869 16.08 33.4156 16.08C32.869 16.08 32.3823 15.9633 31.9556 15.73C31.529 15.4967 31.1956 15.1633 30.9556 14.73C30.7156 14.2967 30.5956 13.79 30.5956 13.21C30.5956 12.63 30.7123 12.1233 30.9456 11.69C31.1856 11.2567 31.519 10.9233 31.9456 10.69C32.3723 10.4567 32.8623 10.34 33.4156 10.34C33.9556 10.34 34.4356 10.4533 34.8556 10.68C35.2756 10.9067 35.6023 11.23 35.8356 11.65C36.0756 12.07 36.1956 12.56 36.1956 13.12ZM34.4456 12.67C34.4456 12.3767 34.3456 12.1433 34.1456 11.97C33.9456 11.7967 33.6956 11.71 33.3956 11.71C33.109 11.71 32.8656 11.7933 32.6656 11.96C32.4723 12.1267 32.3523 12.3633 32.3056 12.67H34.4456ZM38.8577 8.6V16H37.1477V8.6H38.8577ZM45.407 13.12C45.407 13.28 45.397 13.4467 45.377 13.62H41.507C41.5336 13.9667 41.6436 14.2333 41.837 14.42C42.037 14.6 42.2803 14.69 42.567 14.69C42.9936 14.69 43.2903 14.51 43.457 14.15H45.277C45.1836 14.5167 45.0136 14.8467 44.767 15.14C44.527 15.4333 44.2236 15.6633 43.857 15.83C43.4903 15.9967 43.0803 16.08 42.627 16.08C42.0803 16.08 41.5936 15.9633 41.167 15.73C40.7403 15.4967 40.407 15.1633 40.167 14.73C39.927 14.2967 39.807 13.79 39.807 13.21C39.807 12.63 39.9236 12.1233 40.157 11.69C40.397 11.2567 40.7303 10.9233 41.157 10.69C41.5836 10.4567 42.0736 10.34 42.627 10.34C43.167 10.34 43.647 10.4533 44.067 10.68C44.487 10.9067 44.8136 11.23 45.047 11.65C45.287 12.07 45.407 12.56 45.407 13.12ZM43.657 12.67C43.657 12.3767 43.557 12.1433 43.357 11.97C43.157 11.7967 42.907 11.71 42.607 11.71C42.3203 11.71 42.077 11.7933 41.877 11.96C41.6836 12.1267 41.5636 12.3633 41.517 12.67H43.657ZM49.4691 14.55V16H48.5991C47.9791 16 47.4957 15.85 47.1491 15.55C46.8024 15.2433 46.6291 14.7467 46.6291 14.06V11.84H45.9491V10.42H46.6291V9.06H48.3391V10.42H49.4591V11.84H48.3391V14.08C48.3391 14.2467 48.3791 14.3667 48.4591 14.44C48.5391 14.5133 48.6724 14.55 48.8591 14.55H49.4691ZM55.7316 13.12C55.7316 13.28 55.7216 13.4467 55.7016 13.62H51.8316C51.8582 13.9667 51.9682 14.2333 52.1616 14.42C52.3616 14.6 52.6049 14.69 52.8916 14.69C53.3182 14.69 53.6149 14.51 53.7816 14.15H55.6016C55.5082 14.5167 55.3382 14.8467 55.0916 15.14C54.8516 15.4333 54.5482 15.6633 54.1816 15.83C53.8149 15.9967 53.4049 16.08 52.9516 16.08C52.4049 16.08 51.9182 15.9633 51.4916 15.73C51.0649 15.4967 50.7316 15.1633 50.4916 14.73C50.2516 14.2967 50.1316 13.79 50.1316 13.21C50.1316 12.63 50.2482 12.1233 50.4816 11.69C50.7216 11.2567 51.0549 10.9233 51.4816 10.69C51.9082 10.4567 52.3982 10.34 52.9516 10.34C53.4916 10.34 53.9716 10.4533 54.3916 10.68C54.8116 10.9067 55.1382 11.23 55.3716 11.65C55.6116 12.07 55.7316 12.56 55.7316 13.12ZM53.9816 12.67C53.9816 12.3767 53.8816 12.1433 53.6816 11.97C53.4816 11.7967 53.2316 11.71 52.9316 11.71C52.6449 11.71 52.4016 11.7933 52.2016 11.96C52.0082 12.1267 51.8882 12.3633 51.8416 12.67H53.9816Z" fill="#E4F5FF"/>
</svg>
