<svg width="46" height="24" viewBox="0 0 46 24" fill="none" xmlns="http://www.w3.org/2000/svg">
<path d="M29 17.013L33.413 16.998L43.045 7.45802C43.423 7.08002 43.631 6.57802 43.631 6.04402C43.631 5.51002 43.423 5.00802 43.045 4.63002L41.459 3.04402C40.703 2.28802 39.384 2.29202 38.634 3.04102L29 12.583V17.013ZM40.045 4.45802L41.634 6.04102L40.037 7.62302L38.451 6.03802L40.045 4.45802ZM31 13.417L37.03 7.44402L38.616 9.03002L32.587 15.001L31 15.006V13.417Z" fill="#E4F5FF"/>
<path d="M27 21H41C42.103 21 43 20.103 43 19V10.332L41 12.332V19H30.158C30.132 19 30.105 19.01 30.079 19.01C30.046 19.01 30.013 19.001 29.979 19H27V5H33.847L35.847 3H27C25.897 3 25 3.897 25 5V19C25 20.103 25.897 21 27 21Z" fill="#E4F5FF"/>
<path d="M2.33 10.35V11.77H4.62V13.09H2.33V14.63H4.92V16H0.62V8.98H4.92V10.35H2.33ZM5.74016 13.2C5.74016 12.6267 5.84682 12.1233 6.06016 11.69C6.28016 11.2567 6.57682 10.9233 6.95016 10.69C7.32349 10.4567 7.74016 10.34 8.20016 10.34C8.56682 10.34 8.90016 10.4167 9.20016 10.57C9.50682 10.7233 9.74682 10.93 9.92016 11.19V8.6H11.6302V16H9.92016V15.2C9.76016 15.4667 9.53016 15.68 9.23016 15.84C8.93682 16 8.59349 16.08 8.20016 16.08C7.74016 16.08 7.32349 15.9633 6.95016 15.73C6.57682 15.49 6.28016 15.1533 6.06016 14.72C5.84682 14.28 5.74016 13.7733 5.74016 13.2ZM9.92016 13.21C9.92016 12.7833 9.80016 12.4467 9.56016 12.2C9.32682 11.9533 9.04016 11.83 8.70016 11.83C8.36016 11.83 8.07016 11.9533 7.83016 12.2C7.59682 12.44 7.48016 12.7733 7.48016 13.2C7.48016 13.6267 7.59682 13.9667 7.83016 14.22C8.07016 14.4667 8.36016 14.59 8.70016 14.59C9.04016 14.59 9.32682 14.4667 9.56016 14.22C9.80016 13.9733 9.92016 13.6367 9.92016 13.21ZM13.7773 9.84C13.4773 9.84 13.2306 9.75333 13.0373 9.58C12.8506 9.4 12.7573 9.18 12.7573 8.92C12.7573 8.65333 12.8506 8.43333 13.0373 8.26C13.2306 8.08 13.4773 7.99 13.7773 7.99C14.0706 7.99 14.3106 8.08 14.4973 8.26C14.6906 8.43333 14.7873 8.65333 14.7873 8.92C14.7873 9.18 14.6906 9.4 14.4973 9.58C14.3106 9.75333 14.0706 9.84 13.7773 9.84ZM14.6273 10.42V16H12.9173V10.42H14.6273ZM19.0265 14.55V16H18.1565C17.5365 16 17.0532 15.85 16.7065 15.55C16.3598 15.2433 16.1865 14.7467 16.1865 14.06V11.84H15.5065V10.42H16.1865V9.06H17.8965V10.42H19.0165V11.84H17.8965V14.08C17.8965 14.2467 17.9365 14.3667 18.0165 14.44C18.0965 14.5133 18.2298 14.55 18.4165 14.55H19.0265Z" fill="#E4F5FF"/>
</svg>
